<?xml version="1.0" standalone="no"?>
<!DOCTYPE svg PUBLIC "-//W3C//DTD SVG 20010904//EN"
 "http://www.w3.org/TR/2001/REC-SVG-20010904/DTD/svg10.dtd">
<svg version="1.0" xmlns="http://www.w3.org/2000/svg"
 width="6251.000000pt" height="3126.000000pt" viewBox="0 0 6251.000000 3126.000000"
 preserveAspectRatio="xMidYMid meet">

<g transform="translate(0.000000,3126.000000) scale(0.100000,-0.100000)"
fill="#000000" stroke="none">
<path d="M42690 25890 c-71 -17 -241 -31 -550 -45 -424 -20 -712 -51 -1102
-119 -254 -45 -377 -99 -682 -304 -218 -145 -346 -261 -387 -349 -13 -29 -26
-52 -29 -52 -3 0 -20 21 -37 47 -18 26 -49 65 -68 87 l-35 40 6 -120 c4 -66
12 -142 19 -168 l13 -49 -47 6 c-25 4 -59 9 -75 13 -25 5 -28 3 -21 -13 56
-130 132 -423 256 -978 l64 -288 41 -30 c145 -104 294 -463 294 -706 0 -107
-22 -162 -75 -193 l-35 -21 0 -116 c0 -417 181 -871 511 -1282 154 -193 428
-450 605 -567 42 -28 54 -41 54 -62 0 -40 -41 -554 -45 -567 -6 -18 -151 -63
-237 -74 -146 -18 -268 10 -457 105 l-108 53 -82 329 c-88 346 -248 939 -260
961 -4 8 -12 -1 -20 -25 -36 -101 -170 -243 -367 -392 l-107 -80 -336 -112
c-569 -189 -911 -315 -1017 -374 -176 -99 -369 -285 -503 -485 -103 -156 -285
-521 -385 -776 -352 -892 -612 -2042 -644 -2854 l-7 -165 -1413 -5 -1414 -5
-24 -28 c-16 -18 -24 -41 -24 -63 0 -25 128 -340 397 -982 344 -819 403 -953
437 -990 72 -78 -67 -72 1548 -73 l1453 0 150 -181 c150 -181 375 -442 509
-593 151 -168 366 -402 404 -439 40 -38 41 -39 66 -23 38 25 44 21 48 -28 l3
-45 -5003 0 -5004 0 7 378 c4 207 8 649 8 982 2 655 -4 766 -59 1150 -203
1419 -876 2657 -1759 3236 -580 380 -1178 433 -1737 154 -855 -428 -1529
-1589 -1773 -3055 -70 -420 -93 -706 -105 -1320 -5 -242 -12 -453 -15 -470
-38 -194 -61 -257 -115 -319 -39 -44 -105 -79 -178 -95 -74 -15 -11055 -16
-11168 0 -43 6 -114 22 -158 36 -66 21 -87 33 -131 77 -91 91 -88 65 -95 736
-4 322 -10 605 -14 630 -3 25 -10 99 -16 165 -116 1311 -594 2507 -1275 3190
-544 545 -1183 734 -1805 534 -442 -142 -874 -500 -1219 -1009 -316 -465 -577
-1087 -726 -1724 l-32 -141 -287 -3 -287 -2 7 -688 c8 -862 12 -951 44 -1015
27 -54 70 -96 133 -129 40 -22 53 -23 335 -26 218 -2 292 -6 292 -15 0 -39 43
-381 64 -505 99 -593 265 -1112 506 -1579 49 -95 87 -173 86 -173 -18 0 -739
-79 -971 -106 -1282 -150 -2256 -325 -2782 -499 -249 -83 -446 -194 -489 -276
-8 -17 -23 -29 -34 -29 -20 0 -20 -18 -20 -2534 l0 -2534 -32 -68 c-28 -60
-33 -80 -33 -149 0 -116 37 -189 159 -311 112 -112 229 -190 448 -299 2042
-1017 9004 -1795 17753 -1985 1188 -26 1711 -31 3390 -37 3012 -9 4804 21
7965 137 568 21 1960 88 2270 110 80 5 303 19 495 30 656 38 1621 104 2264
155 172 14 330 25 351 25 l37 0 -5 -90 -5 -90 249 2 249 3 24 110 c13 61 24
111 25 112 1 1 156 16 346 33 722 65 2165 216 2262 236 23 4 28 1 32 -18 8
-36 86 -465 86 -472 0 -3 119 -6 264 -6 l264 0 4 284 c1 156 5 287 8 289 3 3
111 20 240 37 3181 424 5126 960 5520 1523 28 39 58 96 67 126 22 78 14 181
-20 248 l-27 52 0 2424 0 2424 41 29 c241 167 105 343 -391 508 -662 220
-2019 437 -3820 612 -151 14 -276 28 -278 29 -2 2 4 17 12 34 l16 30 728 3
727 3 57 28 c62 30 115 83 150 149 22 41 23 53 23 263 0 215 -1 221 -25 269
-14 26 -48 70 -77 96 -96 88 3 81 -1315 87 l-1167 6 -25 -57 c-58 -131 -220
-371 -300 -445 l-26 -24 0 116 0 116 43 11 c93 25 119 34 124 46 2 6 -4 75
-15 154 -12 97 -15 143 -8 145 6 2 64 6 129 10 65 4 148 14 185 23 56 14 67
20 65 37 -1 11 -16 128 -33 260 -16 132 -64 528 -105 880 -41 352 -98 829
-127 1060 l-53 420 1 380 c1 474 24 948 99 2030 58 827 56 794 45 1057 -19
472 -70 753 -173 953 -51 100 -133 185 -198 207 -26 9 -77 36 -114 61 l-68 46
39 6 c78 13 170 45 219 76 l50 31 -34 29 c-19 16 -58 41 -88 56 l-53 28 47 24
c255 129 488 727 607 1561 33 229 48 411 44 535 l-3 100 -185 18 c-105 11
-278 19 -400 20 -209 2 -219 1 -355 -30 -77 -18 -229 -52 -338 -77 -278 -63
-411 -78 -653 -74 -174 3 -203 5 -230 22 -52 32 -108 137 -156 296 -21 69
-108 483 -103 488 4 5 607 63 611 59 1 -1 9 -109 17 -240 8 -131 17 -240 19
-242 6 -6 711 75 728 84 10 6 24 75 50 252 l35 244 103 9 c56 5 105 6 108 4 2
-3 19 -108 36 -234 17 -126 34 -233 39 -238 4 -5 136 -1 306 8 164 9 309 16
323 16 14 0 30 4 37 8 8 5 17 100 28 296 8 159 14 291 12 293 -3 2 -48 0 -101
-4 -53 -5 -96 -7 -96 -6 0 2 20 39 45 82 174 298 232 632 159 914 -18 70 -66
178 -88 196 -13 11 -10 21 21 68 45 71 71 145 86 244 15 103 1 226 -52 464
-22 99 -42 203 -46 230 -12 92 -10 90 -75 75z m-910 -1310 c184 -24 300 -33
415 -34 163 -1 198 6 317 58 13 6 19 0 27 -31 16 -53 38 -195 45 -276 5 -63 4
-68 -12 -61 -9 4 -56 9 -104 12 -202 10 -478 -116 -478 -218 0 -45 45 -64 145
-64 133 1 316 62 408 135 l37 30 0 -35 c0 -19 -14 -88 -30 -152 -33 -125 -33
-150 -3 -268 8 -32 12 -60 10 -62 -2 -2 -35 -6 -74 -10 l-70 -7 -11 45 c-6 24
-23 61 -37 82 -14 21 -25 40 -23 41 2 2 35 0 73 -5 38 -5 72 -7 74 -4 8 8 -44
56 -84 77 -62 33 -183 31 -250 -5 -46 -24 -170 -138 -151 -138 5 0 40 11 78
25 38 14 73 25 78 25 5 0 -2 -21 -15 -47 -14 -26 -28 -64 -31 -85 -4 -21 -12
-38 -18 -38 -6 0 -171 -14 -366 -30 -195 -16 -369 -30 -386 -30 -30 0 -32 2
-39 48 -8 53 -37 127 -63 155 -17 19 -16 20 43 13 33 -4 71 -10 84 -13 l25 -6
-22 31 c-37 51 -104 77 -197 77 -67 -1 -88 -5 -130 -27 -48 -25 -154 -122
-144 -132 2 -3 37 7 77 21 40 14 74 24 77 22 2 -3 -7 -27 -20 -54 -14 -28 -29
-74 -35 -104 -6 -30 -12 -56 -15 -59 -6 -6 -555 -53 -582 -50 l-23 3 25 54
c17 35 59 88 125 156 155 160 175 225 151 501 -23 268 31 381 207 434 110 33
176 39 412 35 179 -2 277 -10 480 -35z m454 -966 c25 -24 19 -34 -19 -34 -24
0 -35 5 -35 15 0 11 23 32 37 35 1 0 9 -7 17 -16z m-1100 -46 c9 -12 16 -34
16 -49 0 -23 -5 -27 -37 -32 -21 -4 -41 -3 -46 2 -19 19 16 101 43 101 5 0 16
-10 24 -22z m1637 -88 c-4 -125 -20 -372 -24 -376 -6 -7 -546 -37 -560 -31 -8
3 -18 41 -26 98 -7 52 -15 108 -18 124 l-6 30 34 -31 c19 -17 45 -34 58 -37
33 -8 82 14 113 51 31 37 68 130 68 172 0 16 5 32 11 36 13 8 302 43 333 41
18 -2 19 -9 17 -77z m-549 8 c-9 -9 -15 -9 -24 0 -9 9 -7 12 12 12 19 0 21 -3
12 -12z m-436 -45 c-2 -10 -19 -107 -37 -216 -29 -179 -34 -198 -53 -202 -42
-8 -597 -68 -600 -64 -2 2 -6 63 -10 135 l-7 131 50 -5 c49 -4 52 -3 95 40 33
33 49 59 62 105 l18 61 176 11 c96 7 182 14 190 15 8 2 39 4 68 5 46 1 53 -1
48 -16z m690 -985 c-13 -29 -54 -141 -91 -248 -75 -215 -142 -379 -182 -443
-50 -81 -136 -179 -181 -208 -58 -37 -133 -40 -201 -7 -129 61 -318 323 -465
645 -35 76 -67 149 -71 161 -6 21 -5 23 13 13 36 -19 262 -34 437 -28 245 8
586 76 713 142 26 13 48 24 49 25 1 0 -9 -24 -21 -52z m-33141 -4972 c125 -32
309 -123 425 -209 249 -185 450 -440 629 -797 208 -416 324 -838 393 -1425 21
-177 17 -861 -5 -1050 -88 -736 -301 -1336 -637 -1792 -96 -130 -301 -332
-415 -410 -158 -107 -302 -169 -462 -199 -121 -22 -355 -15 -466 16 -587 159
-1078 803 -1317 1725 -401 1546 28 3349 944 3966 152 103 303 166 461 194 122
22 324 13 450 -19z m16949 0 c412 -107 789 -468 1062 -1016 466 -938 541
-2299 186 -3377 -274 -830 -766 -1385 -1319 -1489 -129 -24 -357 -15 -473 18
-132 39 -228 83 -341 157 -218 143 -378 310 -551 576 -575 883 -734 2375 -378
3553 121 401 312 785 519 1042 203 253 457 441 701 519 182 58 411 65 594 17z
m12226 -771 c28 -258 53 -489 56 -512 l6 -43 -187 0 c-173 0 -186 1 -182 18 3
9 60 243 128 520 68 277 125 500 126 495 1 -4 25 -219 53 -478z m1104 -3624
c104 -95 447 -485 490 -559 9 -15 -89 -136 -176 -217 -119 -110 -275 -196
-417 -229 l-62 -14 -26 41 c-52 83 -174 314 -229 437 -57 125 -126 319 -118
332 6 9 340 268 387 300 l39 26 36 -41 c21 -22 55 -57 76 -76z m-19094 -717
c6 -14 10 -30 10 -35 0 -5 -78 -9 -187 -9 -181 0 -604 -8 -1558 -30 -1779 -41
-3603 -103 -5169 -175 -296 -14 -540 -24 -542 -22 -2 2 20 62 49 133 30 71 56
137 60 147 6 16 190 17 3667 17 l3660 0 10 -26z m9128 -571 c-43 -2 -113 -2
-155 0 -43 1 -8 3 77 3 85 0 120 -2 78 -3z"/>
<path d="M40965 24120 c-93 -15 -161 -38 -194 -66 -39 -32 -39 -46 -1 -78 127
-106 636 -111 752 -7 24 21 29 32 24 49 -10 30 -88 68 -178 88 -88 19 -320 27
-403 14z"/>
<path d="M8890 17326 c-490 -109 -917 -603 -1166 -1351 -318 -954 -294 -2097
63 -3020 97 -253 269 -549 424 -731 280 -331 629 -497 953 -456 88 11 257 59
277 79 4 4 -27 34 -71 67 -101 74 -256 234 -347 356 -603 814 -811 2220 -507
3433 171 681 477 1208 877 1507 32 24 54 46 50 50 -16 14 -121 49 -196 64 -90
19 -277 20 -357 2z"/>
<path d="M9711 16634 c-161 -73 -322 -243 -460 -487 l-33 -57 282 -409 283
-409 33 20 c19 11 36 24 39 28 3 4 -11 291 -30 636 -19 346 -35 646 -35 667 0
44 -6 45 -79 11z"/>
<path d="M10145 16310 c3 -36 14 -240 25 -455 11 -214 22 -399 23 -410 1 -11
24 43 51 120 27 77 64 179 81 226 l32 86 -37 104 c-41 118 -118 291 -156 353
l-25 41 6 -65z"/>
<path d="M9036 15628 c-77 -252 -156 -694 -156 -869 l0 -29 325 0 325 0 4 23
c2 12 14 64 26 116 l22 93 -30 42 c-16 22 -125 181 -242 351 -118 171 -221
320 -231 333 -17 23 -18 22 -43 -60z"/>
<path d="M10481 15208 c-7 -18 -32 -91 -57 -163 l-45 -130 18 -92 18 -93 60 0
60 0 -7 147 c-6 138 -26 354 -33 361 -1 2 -8 -12 -14 -30z"/>
<path d="M8876 14333 c20 -288 44 -455 93 -653 41 -167 91 -322 102 -318 5 2
123 176 263 387 l253 384 -23 86 c-12 47 -25 103 -29 124 l-6 37 -328 0 -328
0 3 -47z"/>
<path d="M10406 14326 c-7 -51 -5 -59 47 -162 l54 -107 6 74 c4 41 9 113 13
162 l7 87 -60 0 -61 0 -6 -54z"/>
<path d="M10200 13832 c0 -42 -46 -899 -55 -1022 -5 -74 -5 -75 12 -45 55 100
160 389 216 594 l34 125 -94 190 c-51 105 -98 193 -103 194 -6 2 -10 -14 -10
-36z"/>
<path d="M9512 13398 l-281 -421 24 -47 c100 -197 307 -432 443 -504 41 -21
76 -35 80 -32 4 5 78 1244 81 1371 1 17 -42 55 -61 55 -3 0 -131 -190 -286
-422z"/>
<path d="M25840 17326 c-202 -45 -402 -160 -571 -327 -716 -711 -1011 -2250
-683 -3563 165 -660 467 -1186 839 -1462 215 -159 466 -234 689 -206 96 12
237 51 269 74 16 12 12 17 -45 58 -81 57 -233 204 -311 300 -192 238 -364 570
-485 936 -220 669 -273 1516 -141 2264 141 797 485 1465 926 1797 l82 61 -72
26 c-40 15 -103 33 -142 41 -84 18 -277 18 -355 1z"/>
<path d="M26661 16634 c-159 -72 -325 -248 -460 -486 l-32 -58 282 -409 282
-409 36 21 c20 11 37 22 39 23 2 1 -13 290 -33 641 -19 352 -35 654 -35 672 0
37 -8 38 -79 5z"/>
<path d="M27095 16305 c8 -102 45 -791 45 -838 0 -22 2 -38 5 -35 3 3 40 104
83 226 l78 221 -36 103 c-42 118 -119 294 -156 353 l-24 40 5 -70z"/>
<path d="M25990 15639 c-41 -136 -79 -293 -104 -429 -24 -131 -56 -388 -56
-450 l0 -30 325 0 325 0 4 23 c3 12 14 63 26 114 12 51 18 98 14 105 -13 21
-496 722 -504 731 -4 5 -18 -24 -30 -64z"/>
<path d="M27441 15239 c0 -3 -26 -77 -56 -164 l-56 -159 18 -93 18 -93 61 0
61 0 -4 78 c-9 194 -35 463 -42 431z"/>
<path d="M25830 14308 c0 -153 45 -457 95 -653 39 -151 87 -296 97 -293 5 2
124 177 263 388 l254 385 -19 65 c-10 36 -24 91 -30 123 l-11 57 -325 0 -324
0 0 -72z"/>
<path d="M27367 14373 c-3 -5 -7 -29 -11 -55 -6 -43 -3 -55 45 -150 l53 -103
7 45 c3 25 10 96 14 158 l7 112 -55 0 c-31 0 -58 -3 -60 -7z"/>
<path d="M27127 13353 c-15 -285 -30 -540 -32 -568 l-5 -50 35 70 c73 150 223
590 227 669 1 23 -178 396 -190 396 -5 0 -20 -233 -35 -517z"/>
<path d="M26462 13398 l-280 -423 24 -46 c80 -159 253 -372 368 -453 73 -52
145 -90 154 -81 5 5 78 1239 81 1365 1 18 -8 31 -28 43 -16 9 -31 17 -34 17
-2 0 -131 -190 -285 -422z"/>
<path d="M52027 25343 c-3 -10 -8 -40 -12 -68 -4 -27 -27 -142 -52 -255 -84
-380 -70 -568 56 -755 20 -29 20 -30 2 -50 -67 -72 -110 -229 -118 -420 -11
-284 67 -543 245 -815 l55 -85 24 85 c43 155 47 211 25 288 -20 65 -35 138
-46 215 l-5 38 37 -32 c45 -40 174 -100 267 -125 46 -12 104 -19 167 -19 82 0
101 3 125 21 42 31 40 56 -6 107 -81 88 -258 156 -427 164 -81 5 -108 2 -134
-11 l-33 -16 7 93 c7 91 27 207 48 278 l10 37 53 -24 c137 -63 263 -65 700
-14 480 56 677 62 873 25 156 -30 225 -73 274 -173 l33 -67 -4 -145 c-13 -434
-13 -437 151 -606 150 -156 160 -178 169 -393 4 -90 11 -167 16 -172 16 -16
58 43 88 121 60 159 148 298 224 354 l46 34 73 329 c128 572 206 874 257 986
7 18 3 19 -69 12 l-76 -7 10 28 c11 28 34 304 26 311 -5 5 -76 -81 -111 -134
-15 -24 -29 -43 -30 -43 -2 0 -15 25 -30 55 -31 65 -114 158 -194 219 -117 90
-423 289 -517 336 -140 72 -252 104 -495 144 -403 66 -635 91 -982 106 -389
16 -603 34 -694 56 -15 4 -23 0 -26 -13z"/>
<path d="M17505 25260 c-211 -12 -533 -38 -670 -55 -347 -43 -901 -202 -1391
-400 -1327 -535 -2622 -1488 -3204 -2355 -100 -151 -155 -261 -174 -355 -8
-38 -35 -122 -60 -186 -63 -163 -204 -582 -264 -784 -178 -597 -298 -1173
-347 -1665 -3 -30 -8 -74 -11 -96 -11 -89 -14 -255 -4 -249 5 3 23 -1 41 -10
17 -9 32 -15 34 -13 1 2 6 53 10 113 44 726 241 1597 567 2508 l60 167 30 -46
c176 -277 751 -490 1698 -628 468 -68 1062 -120 1845 -161 295 -15 940 -32
1597 -41 l448 -6 -30 64 c-40 86 -56 208 -41 322 13 95 110 468 140 540 12 26
21 50 21 52 0 2 -1015 4 -2255 4 -1240 0 -2255 3 -2255 6 0 40 381 1013 615
1570 l67 160 92 59 c307 198 586 359 838 486 l138 69 2207 -2 2208 -3 42 -80
c116 -221 175 -387 302 -852 49 -180 135 -488 190 -683 l101 -355 -47 -47
c-63 -62 -190 -136 -323 -189 l-107 -42 63 -56 c89 -79 348 -393 386 -469 17
-34 33 -85 36 -112 3 -34 10 -51 21 -54 9 -3 97 -28 196 -57 209 -60 272 -87
333 -143 33 -30 43 -36 39 -21 -3 11 -27 101 -52 200 -70 274 -210 783 -375
1365 -82 289 -181 644 -220 790 -116 428 -201 660 -325 881 -92 167 -179 284
-300 404 -246 246 -527 379 -935 441 -125 19 -718 27 -975 14z m-3801 -1767
c-163 -386 -445 -1105 -540 -1375 l-48 -138 -387 0 c-426 0 -399 -4 -399 62 0
94 233 427 499 713 196 211 472 459 744 669 76 58 141 106 143 106 2 0 -3 -17
-12 -37z"/>
<path d="M22000 25260 c-759 -29 -1266 -133 -1496 -306 -63 -48 -96 -87 -128
-150 -108 -218 -107 -528 5 -926 29 -104 257 -783 394 -1173 361 -1029 692
-1519 1105 -1635 75 -20 79 -20 1180 -14 657 4 1551 2 2205 -5 2256 -24 3928
-42 5225 -56 734 -8 1817 -17 2405 -20 966 -4 1436 -12 1940 -31 141 -5 181
-4 234 10 123 31 176 79 139 123 -28 34 -757 646 -1218 1024 -2335 1911 -3967
2994 -4752 3153 -69 14 -437 16 -3560 14 -1916 0 -3571 -4 -3678 -8z m7453
-273 c630 -177 1788 -911 3407 -2157 172 -133 893 -706 1034 -823 20 -16 19
-16 -24 -2 -61 22 -310 71 -450 89 -193 26 -506 53 -932 81 l-97 7 -78 96
c-458 574 -1126 833 -1781 691 -397 -86 -780 -331 -1054 -674 -45 -55 -82
-101 -83 -103 -2 -2 -144 -10 -317 -18 -2147 -96 -3831 -331 -4629 -645 l-125
-49 -185 0 c-101 0 -241 3 -310 7 l-126 6 -43 146 c-76 258 -229 683 -441
1224 -60 153 -109 282 -109 287 0 5 50 54 112 110 790 718 1856 1344 2888
1697 l185 63 1530 -3 1530 -2 98 -28z m-8278 -668 c139 -14 228 -36 310 -74
76 -37 102 -56 129 -97 84 -128 -25 -336 -289 -552 -33 -28 -96 -85 -141 -129
l-81 -78 -71 208 c-115 336 -164 522 -178 670 l-7 70 114 -4 c63 -2 159 -8
214 -14z m2087 -1969 c106 -281 268 -757 283 -828 l7 -34 -138 6 c-77 4 -326
13 -554 21 -228 8 -470 17 -537 21 l-123 6 0 99 c0 178 44 335 155 554 125
248 311 502 554 758 l85 89 78 -199 c44 -109 129 -331 190 -493z m7908 205
c229 -51 488 -176 653 -317 l38 -33 -971 0 -972 0 39 34 c55 49 206 147 293
191 125 63 297 118 439 140 88 14 394 4 481 -15z"/>
<path d="M53509 23495 c-105 -20 -185 -51 -209 -82 -18 -23 -19 -29 -7 -47 22
-34 86 -63 176 -81 128 -26 405 -17 519 17 93 28 135 59 130 97 -4 33 -43 59
-124 83 -93 27 -373 34 -485 13z"/>
<path d="M52412 23213 c-43 -15 -112 -71 -112 -91 0 -7 10 -8 32 -1 18 5 55 9
82 9 l49 0 -22 -24 c-12 -13 -31 -52 -42 -86 -60 -193 34 -432 164 -416 71 8
118 76 139 195 15 86 1 169 -40 254 -27 54 -28 57 -8 51 32 -10 119 -40 140
-49 32 -14 3 26 -59 83 -93 85 -215 113 -323 75z m202 -242 c12 -14 16 -32 14
-66 -4 -59 -26 -79 -57 -51 -26 24 -29 97 -5 120 20 21 27 20 48 -3z"/>
<path d="M53589 23181 c-56 -18 -111 -57 -130 -92 -7 -15 -4 -16 29 -8 20 5
56 9 80 9 l43 0 -19 -27 c-111 -163 -45 -481 104 -499 57 -7 99 23 132 94 24
51 27 69 27 167 0 104 -2 115 -32 175 -17 36 -30 66 -29 68 2 1 41 -11 87 -27
46 -16 85 -28 87 -26 9 9 -111 116 -158 140 -59 30 -169 43 -221 26z m175
-244 c22 -16 32 -87 17 -116 -13 -24 -43 -28 -60 -7 -21 26 -25 83 -7 111 19
29 25 30 50 12z"/>
<path d="M47430 21283 c0 -5 -22 -31 -48 -58 -77 -80 -222 -244 -222 -251 0
-4 35 -72 79 -153 43 -80 179 -342 301 -581 420 -823 547 -1063 717 -1360 126
-218 287 -459 362 -541 115 -126 372 -264 564 -303 329 -68 1106 -40 2234 80
l61 7 6 -44 c3 -24 10 -100 16 -169 19 -223 79 -800 161 -1545 127 -1161 173
-1635 216 -2215 23 -315 24 -966 2 -1088 l-16 -82 24 -6 c22 -6 23 -10 23 -93
-1 -241 123 -9717 127 -9721 6 -6 511 -6 517 1 4 4 80 411 130 699 265 1524
502 3663 651 5880 38 572 105 1756 105 1859 0 13 2 22 4 20 4 -4 1876 -8440
1876 -8454 0 -3 111 -5 247 -5 l246 0 -7 248 c-62 2277 -412 5655 -948 9166
-38 249 -57 401 -51 405 6 3 13 93 16 206 7 225 51 642 70 661 3 3 120 -5 259
-20 408 -41 539 -49 793 -50 262 0 326 9 428 60 253 127 401 491 459 1124 15
169 15 762 -1 1045 -25 456 -90 1265 -131 1645 -90 817 -244 1381 -451 1654
-47 61 -156 156 -180 156 -5 0 -39 21 -76 46 -82 56 -187 109 -329 167 -83 33
-268 139 -763 436 -463 277 -657 388 -662 379 -10 -19 -82 -375 -133 -663 -80
-453 -218 -1350 -276 -1795 -60 -464 -180 -1604 -272 -2590 -29 -316 -34 -347
-40 -285 -4 39 -28 849 -53 1802 l-46 1731 51 77 c27 43 50 82 50 88 0 14
-175 351 -216 415 -30 46 -37 51 -53 42 -11 -5 -29 -36 -41 -67 -22 -60 -79
-260 -104 -370 l-14 -63 59 -84 58 -85 -62 -1386 c-34 -762 -65 -1385 -69
-1385 -5 0 -8 42 -8 93 0 338 -73 1938 -105 2302 -8 94 -26 305 -40 470 -33
391 -69 765 -100 1043 -14 123 -23 246 -20 273 3 27 7 72 10 99 3 29 2 50 -4
50 -5 0 -45 -24 -88 -54 -206 -141 -549 -330 -721 -396 -42 -17 -86 -35 -97
-42 -10 -6 -77 -30 -147 -54 -70 -23 -158 -59 -195 -79 -113 -61 -724 -285
-1023 -376 -331 -101 -592 -156 -854 -181 l-129 -12 -26 34 c-320 424 -1092
1273 -1753 1926 -280 277 -348 339 -348 317z m8179 -5068 c66 -534 151 -1254
151 -1280 0 -20 -13 -22 -187 -44 -104 -12 -257 -33 -340 -45 -92 -13 -153
-18 -153 -12 0 59 464 1806 476 1793 1 -1 25 -186 53 -412z m-2849 -1584 c78
-25 391 -176 401 -194 4 -6 26 -95 48 -196 49 -213 61 -182 -99 -265 -203
-105 -425 -186 -565 -207 -85 -13 -132 -7 -168 21 -33 26 -46 25 -147 -10 -46
-16 -85 -28 -86 -27 -21 28 -23 50 -9 83 l15 36 -27 -7 c-15 -3 -56 -24 -92
-45 -36 -21 -76 -41 -88 -45 -20 -6 -23 -3 -23 24 0 101 73 213 323 497 44 49
87 100 98 115 l19 26 -73 27 c-75 27 -147 69 -147 86 0 11 92 54 150 70 157
43 352 48 470 11z m571 -847 c41 53 76 95 79 96 3 0 -16 -240 -42 -532 -26
-293 -47 -539 -47 -545 -1 -9 -24 -13 -80 -13 l-80 0 -5 53 c-3 28 -8 194 -11
367 -3 173 -8 416 -11 540 l-5 225 64 -143 64 -142 74 94z"/>
<path d="M19015 21074 c-236 -34 -414 -62 -395 -64 19 -1 89 -1 155 -1 66 0
278 1 470 1 l350 0 -60 55 c-33 31 -67 59 -75 63 -9 5 -196 -18 -445 -54z"/>
<path d="M20102 20454 c-132 -345 -325 -1131 -412 -1679 -11 -71 -25 -157 -30
-190 -47 -277 -44 -140 -47 -2517 l-3 -2228 39 0 c22 0 42 4 45 9 3 5 6 987 7
2182 0 1246 4 2204 10 2244 60 462 133 867 235 1300 79 337 185 702 249 862
30 74 32 83 15 83 -9 0 -31 3 -48 6 -29 6 -30 5 -60 -72z"/>
<path d="M13160 20280 c-191 -25 -368 -131 -426 -255 -84 -178 55 -365 311
-419 90 -20 589 -59 722 -57 124 2 227 26 325 78 256 134 286 381 65 524 -99
64 -191 86 -447 104 -47 3 -165 13 -263 21 -191 15 -203 15 -287 4z"/>
<path d="M9792 19454 c10 -10 27 -11 78 -4 l65 9 -64 -4 c-36 -2 -59 0 -52 5
9 5 4 8 -14 8 -22 0 -25 -3 -13 -14z"/>
<path d="M9956 19451 c8 -8 74 -9 74 -1 0 4 -18 7 -39 6 -22 0 -38 -3 -35 -5z"/>
<path d="M10047 19449 c7 -7 15 -10 18 -7 3 3 -2 9 -12 12 -14 6 -15 5 -6 -5z"/>
<path d="M9589 19437 c14 -18 51 -42 51 -33 0 3 -15 15 -32 27 -24 17 -29 18
-19 6z"/>
<path d="M9618 19443 c6 -2 18 -2 25 0 6 3 1 5 -13 5 -14 0 -19 -2 -12 -5z"/>
<path d="M10119 19434 c15 -11 26 -13 33 -6 6 6 6 12 -3 17 -8 5 -10 4 -5 -3
4 -7 3 -12 -3 -12 -5 0 -13 5 -16 10 -3 6 -11 10 -18 10 -6 0 -1 -7 12 -16z"/>
<path d="M10321 19430 c-7 -4 1 -7 18 -8 17 0 31 1 31 3 0 7 -39 12 -49 5z"/>
<path d="M9666 19421 c-17 -6 -17 -8 -4 -14 10 -3 19 0 22 9 3 8 4 14 3 13 -1
0 -11 -4 -21 -8z"/>
<path d="M9706 19415 c-3 -8 -1 -15 4 -15 6 0 10 7 10 15 0 8 -2 15 -4 15 -2
0 -6 -7 -10 -15z"/>
<path d="M9733 19412 c-1 -10 -3 -23 -5 -31 -2 -7 3 -15 10 -16 7 -2 8 -1 3 1
-6 3 -7 14 -1 29 5 14 6 26 2 29 -4 3 -8 -3 -9 -12z"/>
<path d="M10428 19423 c6 -2 18 -2 25 0 6 3 1 5 -13 5 -14 0 -19 -2 -12 -5z"/>
<path d="M9617 19389 c7 -7 15 -10 18 -7 3 3 -2 9 -12 12 -14 6 -15 5 -6 -5z"/>
<path d="M10515 19380 c-4 -12 -5 -24 -2 -27 3 -2 8 5 12 17 4 12 5 24 2 27
-3 2 -8 -5 -12 -17z"/>
<path d="M9656 19382 c-3 -5 1 -9 9 -9 8 0 12 4 9 9 -3 4 -7 8 -9 8 -2 0 -6
-4 -9 -8z"/>
<path d="M10560 19384 c0 -2 14 -9 30 -18 21 -10 30 -11 30 -3 0 7 5 6 11 -3
9 -13 10 -13 6 0 -2 8 -11 14 -21 12 -9 -2 -16 1 -16 5 0 5 -9 9 -20 9 -11 0
-20 -1 -20 -2z"/>
<path d="M10540 19368 c0 -9 5 -20 10 -23 13 -8 13 5 0 25 -8 13 -10 13 -10
-2z"/>
<path d="M9806 19329 c3 -5 12 -9 21 -9 19 0 9 13 -12 16 -8 1 -13 -2 -9 -7z"/>
<path d="M9927 19333 c-3 -5 6 -8 19 -8 13 0 24 3 24 8 0 4 -9 7 -19 7 -11 0
-22 -3 -24 -7z"/>
<path d="M10872 19305 c3 -3 16 -8 28 -10 12 -2 20 -1 16 2 -4 4 -16 8 -28 10
-12 2 -19 1 -16 -2z"/>
<path d="M9930 19296 c0 -2 7 -7 16 -10 8 -3 12 -2 9 4 -6 10 -25 14 -25 6z"/>
<path d="M10800 19280 c0 -5 5 -10 10 -10 6 0 10 5 10 10 0 6 -4 10 -10 10 -5
0 -10 -4 -10 -10z"/>
<path d="M10945 19280 c-4 -6 -11 -7 -17 -4 -7 4 -8 2 -4 -5 6 -9 11 -9 21 -1
8 7 20 8 26 4 8 -4 9 -3 5 4 -9 15 -23 15 -31 2z"/>
<path d="M9985 19270 c3 -5 8 -10 11 -10 2 0 4 5 4 10 0 6 -5 10 -11 10 -5 0
-7 -4 -4 -10z"/>
<path d="M10850 19272 c0 -4 9 -8 19 -8 11 0 17 4 15 8 -3 4 -12 8 -20 8 -8 0
-14 -4 -14 -8z"/>
<path d="M10015 19251 c-3 -6 3 -15 14 -20 32 -17 43 -13 21 9 -23 23 -26 24
-35 11z"/>
<path d="M11040 19256 c0 -3 9 -10 20 -16 11 -6 20 -8 20 -6 0 3 -9 10 -20 16
-11 6 -20 8 -20 6z"/>
<path d="M10092 19216 c-1 -15 1 -17 7 -7 5 7 15 17 22 22 10 6 8 8 -7 7 -12
-1 -21 -10 -22 -22z"/>
<path d="M11085 19225 c-16 -8 -23 -14 -14 -15 8 0 24 7 35 15 23 18 18 18
-21 0z"/>
<path d="M10118 19203 c6 -2 10 -8 7 -13 -7 -11 22 -7 32 5 4 4 3 5 -4 1 -6
-3 -14 -2 -18 4 -3 5 -12 10 -18 9 -9 0 -8 -2 1 -6z"/>
<path d="M11155 19200 c3 -5 12 -7 20 -3 21 7 19 13 -6 13 -11 0 -18 -4 -14
-10z"/>
<path d="M10166 19172 c-3 -5 8 -6 25 -4 16 2 29 6 29 8 0 8 -49 4 -54 -4z"/>
<path d="M10236 19167 c-17 -12 -17 -14 1 -27 14 -11 16 -11 6 0 -10 11 -9 16
5 26 22 17 11 18 -12 1z"/>
<path d="M11263 19164 c9 -12 14 -24 10 -28 -4 -4 1 -4 11 0 15 6 17 4 11 -6
-5 -9 -4 -11 3 -6 17 10 16 12 -20 37 -29 20 -31 21 -15 3z"/>
<path d="M11215 19146 c-11 -8 -16 -19 -12 -30 9 -22 41 -17 45 8 6 27 -11 38
-33 22z m10 -26 c3 -5 1 -10 -4 -10 -6 0 -11 5 -11 10 0 6 2 10 4 10 3 0 8 -4
11 -10z"/>
<path d="M10271 19137 c-9 -11 -7 -17 6 -28 16 -13 17 -12 5 3 -10 13 -10 17
0 21 7 2 10 7 7 11 -3 4 -11 0 -18 -7z"/>
<path d="M10305 19121 c-3 -5 -2 -12 3 -15 5 -3 9 1 9 9 0 17 -3 19 -12 6z"/>
<path d="M11315 19120 c-3 -6 1 -7 9 -4 18 7 21 14 7 14 -6 0 -13 -4 -16 -10z"/>
<path d="M10340 19096 c0 -2 7 -9 15 -16 9 -7 15 -8 15 -2 0 5 -7 12 -15 16
-8 3 -15 4 -15 2z"/>
<path d="M10456 19081 c-4 -5 -2 -12 3 -15 5 -4 12 -2 15 3 4 5 2 12 -3 15 -5
4 -12 2 -15 -3z"/>
<path d="M11462 19071 c4 -13 18 -16 19 -4 0 4 -5 9 -11 12 -7 2 -11 -2 -8 -8z"/>
<path d="M10435 19049 c-8 -11 22 -49 39 -49 6 0 0 7 -12 16 -13 9 -21 22 -18
30 6 16 0 19 -9 3z"/>
<path d="M11527 19023 c3 -7 6 -13 8 -13 2 0 5 6 8 13 3 8 -1 14 -8 14 -7 0
-11 -6 -8 -14z"/>
<path d="M22382 19021 c-29 -10 -64 -29 -78 -42 -47 -44 -54 -70 -54 -197 0
-144 12 -170 105 -217 l59 -30 345 0 c343 0 346 0 399 24 103 47 131 109 120
276 -6 92 -29 131 -100 171 l-53 29 -345 2 c-314 3 -350 1 -398 -16z m438 -86
c90 -47 98 -184 13 -236 -66 -41 -143 -22 -183 44 -69 112 55 252 170 192z"/>
<path d="M10545 18994 c2 -32 10 -39 13 -9 1 13 -2 26 -6 29 -4 2 -7 -6 -7
-20z"/>
<path d="M11558 19002 c4 -11 1 -13 -7 -7 -10 6 -11 3 -2 -12 6 -11 9 -22 6
-24 -2 -2 7 -4 20 -4 13 0 21 2 19 4 -2 2 1 10 7 18 6 7 9 14 5 14 -3 1 -12 2
-18 3 -7 1 -12 7 -11 12 1 6 -4 11 -12 11 -7 0 -11 -7 -7 -15z m22 -22 c0 -5
-4 -10 -10 -10 -5 0 -10 5 -10 10 0 6 5 10 10 10 6 0 10 -4 10 -10z"/>
<path d="M10500 19006 c0 -2 7 -7 16 -10 8 -3 12 -2 9 4 -6 10 -25 14 -25 6z"/>
<path d="M11523 18970 c0 -16 4 -30 8 -30 8 0 5 47 -3 55 -3 3 -5 -8 -5 -25z"/>
<path d="M11687 18943 c-4 -3 -7 -11 -7 -17 0 -6 5 -5 12 2 6 6 9 14 7 17 -3
3 -9 2 -12 -2z"/>
<path d="M10656 18928 c3 -5 10 -6 15 -3 13 9 11 12 -6 12 -8 0 -12 -4 -9 -9z"/>
<path d="M10679 18913 c-13 -16 -12 -17 4 -4 16 13 21 21 13 21 -2 0 -10 -8
-17 -17z"/>
<path d="M11691 18903 c-1 -6 4 -15 9 -18 6 -4 8 -10 6 -14 -3 -4 1 -8 9 -8 8
0 12 3 10 7 -8 13 12 30 29 24 14 -5 15 -9 4 -15 -9 -6 -6 -8 10 -6 28 2 28 3
-2 22 -19 13 -29 14 -45 6 -14 -8 -21 -8 -24 2 -4 9 -6 9 -6 0z"/>
<path d="M10730 18845 c-10 -12 -8 -13 10 -10 17 3 20 1 15 -13 -5 -13 -3 -14
6 -5 12 12 6 43 -9 43 -5 0 -15 -7 -22 -15z"/>
<path d="M11845 18820 c6 -30 11 -34 48 -36 24 -2 27 0 14 8 -10 5 -21 7 -26
4 -9 -6 -39 23 -33 31 2 3 1 7 -2 10 -3 3 -3 -5 -1 -17z"/>
<path d="M10885 18770 c-3 -5 -2 -10 4 -10 5 0 13 5 16 10 3 6 2 10 -4 10 -5
0 -13 -4 -16 -10z"/>
<path d="M10933 18767 c0 -8 6 -14 14 -14 9 0 10 4 2 14 -6 7 -12 13 -14 13
-1 0 -2 -6 -2 -13z"/>
<path d="M11924 18759 c-9 -16 22 -43 51 -45 13 0 22 3 19 7 -2 4 -13 6 -24 4
-20 -4 -29 10 -10 17 6 2 1 9 -9 15 -14 9 -22 9 -27 2z"/>
<path d="M10877 18743 c-4 -3 -7 -11 -7 -17 0 -6 5 -5 12 2 6 6 9 14 7 17 -3
3 -9 2 -12 -2z"/>
<path d="M10912 18736 c7 -8 15 -12 17 -11 5 6 -10 25 -20 25 -5 0 -4 -6 3
-14z"/>
<path d="M10967 18673 c6 -16 5 -16 -10 -4 -32 26 -24 6 8 -21 31 -27 33 -27
49 -9 15 17 15 19 -6 37 l-23 19 18 -21 c14 -18 15 -23 4 -32 -16 -14 -38 3
-31 23 3 7 1 16 -5 20 -7 4 -8 -1 -4 -12z"/>
<path d="M12043 18647 c1 -5 -9 -14 -23 -18 -22 -7 -21 -8 5 -3 17 3 38 6 47
7 12 1 14 5 8 11 -14 14 -40 16 -37 3z"/>
<path d="M11025 18630 c-3 -5 -1 -10 4 -10 6 0 11 5 11 10 0 6 -2 10 -4 10 -3
0 -8 -4 -11 -10z"/>
<path d="M11036 18588 c3 -5 9 -6 14 -3 4 3 11 -1 13 -7 4 -8 6 -7 6 4 1 11
-6 16 -18 15 -11 0 -17 -5 -15 -9z"/>
<path d="M11103 18575 c0 -8 4 -12 9 -9 5 3 6 10 3 15 -9 13 -12 11 -12 -6z"/>
<path d="M12083 18561 c0 -9 9 -17 19 -17 10 0 18 1 18 1 0 0 -9 8 -19 17 -18
16 -20 15 -18 -1z"/>
<path d="M12158 18549 c6 -9 9 -18 6 -21 -2 -3 2 -8 11 -11 22 -9 18 7 -7 29
-14 12 -18 13 -10 3z"/>
<path d="M11110 18539 c0 -5 -5 -7 -12 -3 -7 4 -8 3 -4 -4 4 -6 13 -9 21 -6 8
4 12 10 9 15 -7 12 -14 11 -14 -2z"/>
<path d="M12205 18530 c-9 -15 2 -27 30 -33 l26 -4 -22 23 c-26 27 -26 27 -34
14z"/>
<path d="M12164 18486 c-1 -19 3 -23 22 -22 16 1 20 4 11 11 -6 6 -16 16 -22
23 -7 9 -10 6 -11 -12z"/>
<path d="M12216 18475 c4 -8 8 -15 10 -15 2 0 4 7 4 15 0 8 -4 15 -10 15 -5 0
-7 -7 -4 -15z"/>
<path d="M12244 18469 c-3 -6 -1 -15 7 -19 10 -7 10 -14 2 -33 -7 -14 -9 -27
-6 -30 3 -3 16 -1 30 6 19 9 26 8 34 -4 9 -12 10 -12 6 1 -2 9 -14 14 -31 13
-23 -2 -25 1 -20 22 3 12 1 26 -5 30 -6 3 -9 11 -6 16 4 5 4 9 1 9 -3 0 -8 -5
-12 -11z"/>
<path d="M12278 18469 c6 -9 10 -18 7 -21 -3 -3 1 -11 9 -17 10 -8 16 -9 21
-1 4 6 1 9 -6 8 -7 -2 -13 2 -14 9 0 7 -7 18 -15 25 -12 11 -12 11 -2 -3z"/>
<path d="M11217 18424 c3 -8 14 -19 25 -25 15 -8 19 -8 14 0 -4 6 -1 11 6 11
7 0 4 6 -7 12 -29 18 -44 18 -38 2z m28 -4 c3 -5 1 -10 -4 -10 -6 0 -11 5 -11
10 0 6 2 10 4 10 3 0 8 -4 11 -10z"/>
<path d="M12327 18403 c3 -7 6 -13 8 -13 2 0 5 6 8 13 3 8 -1 14 -8 14 -7 0
-11 -6 -8 -14z"/>
<path d="M11289 18371 c-1 -4 -1 -10 0 -15 1 -5 -5 -6 -14 -2 -10 3 -13 2 -10
-5 4 -5 16 -7 27 -3 15 4 18 3 13 -6 -5 -8 -4 -11 3 -6 6 4 8 14 5 24 -6 15
-5 15 14 -1 14 -12 23 -15 28 -7 4 6 1 9 -7 8 -7 -2 -12 2 -11 8 2 10 -46 15
-48 5z"/>
<path d="M12326 18371 c-3 -5 1 -11 9 -15 8 -3 15 -1 15 4 0 13 -18 22 -24 11z"/>
<path d="M12365 18370 c-10 -16 9 -33 30 -28 16 3 15 5 -3 21 -14 13 -22 15
-27 7z"/>
<path d="M12324 18326 c-1 -19 3 -23 22 -22 16 1 20 4 11 11 -6 6 -16 16 -22
23 -7 9 -10 6 -11 -12z"/>
<path d="M12376 18315 c4 -8 8 -15 10 -15 2 0 4 7 4 15 0 8 -4 15 -10 15 -5 0
-7 -7 -4 -15z"/>
<path d="M12425 18301 c-3 -6 -3 -11 2 -11 4 0 0 -5 -10 -11 -14 -8 -16 -14
-6 -25 9 -11 8 -14 -2 -14 -11 0 -11 -2 1 -10 24 -16 40 -12 33 8 -6 15 -5 15
10 4 9 -8 21 -11 27 -7 9 6 15 -8 11 -28 -1 -5 3 -6 8 -3 12 8 23 -22 14 -37
-4 -7 2 -5 12 3 17 14 18 13 11 -5 -4 -11 -4 -16 0 -12 4 4 14 1 22 -6 13 -10
14 -9 3 11 -7 13 -18 25 -26 28 -8 3 -11 13 -8 22 4 9 3 14 -1 11 -7 -6 -80
60 -81 73 0 13 -13 19 -20 9z m50 -59 c-3 -3 -10 -1 -16 5 -6 6 -17 9 -24 7
-7 -3 -16 0 -21 7 -4 8 -3 10 4 5 7 -4 12 -2 12 4 0 6 11 3 25 -6 14 -9 23
-19 20 -22z"/>
<path d="M11345 18290 c-4 -6 -11 -7 -17 -4 -7 4 -8 2 -4 -4 7 -12 36 -5 36 9
0 12 -7 11 -15 -1z"/>
<path d="M11377 18276 c-4 -10 -1 -13 9 -9 9 3 14 -1 14 -13 0 -15 2 -16 9 -5
7 11 9 11 14 0 4 -11 6 -11 6 -1 1 7 -6 15 -14 18 -8 4 -12 10 -9 15 3 5 -1 9
-9 9 -8 0 -17 -7 -20 -14z"/>
<path d="M11360 18246 c0 -2 8 -10 18 -17 15 -13 16 -12 3 4 -13 16 -21 21
-21 13z"/>
<path d="M11466 18121 c-3 -5 1 -14 9 -21 12 -10 15 -10 15 3 0 19 -16 31 -24
18z"/>
<path d="M12592 18088 c2 -6 11 -12 20 -14 11 -1 15 3 11 12 -6 17 -36 19 -31
2z"/>
<path d="M11510 18064 c0 -5 8 -14 18 -21 15 -9 19 -8 19 3 0 8 -3 12 -5 9 -3
-3 -11 0 -19 6 -7 6 -13 7 -13 3z"/>
<path d="M12660 18023 c0 -6 8 -17 18 -24 16 -13 16 -13 2 6 -8 11 -16 22 -17
24 -2 2 -3 0 -3 -6z"/>
<path d="M12646 17992 c-2 -4 -1 -14 4 -22 7 -11 9 -9 7 8 -1 24 -3 26 -11 14z"/>
<path d="M11640 17973 c0 -5 9 -18 20 -28 11 -10 20 -15 20 -11 0 4 -9 16 -20
28 -11 12 -20 17 -20 11z"/>
<path d="M12690 17976 c0 -2 8 -10 18 -17 15 -13 16 -12 3 4 -13 16 -21 21
-21 13z"/>
<path d="M11600 17966 c0 -2 7 -7 16 -10 8 -3 12 -2 9 4 -6 10 -25 14 -25 6z"/>
<path d="M12655 17946 c-11 -8 -16 -19 -12 -30 9 -22 41 -17 45 8 6 27 -11 38
-33 22z m10 -26 c3 -5 1 -10 -4 -10 -6 0 -11 5 -11 10 0 6 2 10 4 10 3 0 8 -4
11 -10z"/>
<path d="M12713 17933 c4 -6 1 -13 -5 -16 -7 -2 0 -4 15 -4 15 0 27 0 25 1 -2
1 -12 8 -22 16 -11 8 -17 10 -13 3z"/>
<path d="M11624 17915 c3 -21 16 -31 16 -12 0 9 -4 18 -9 21 -5 4 -8 -1 -7 -9z"/>
<path d="M12736 17892 c-14 -22 -14 -63 0 -69 22 -8 50 5 36 19 -6 6 -8 16 -6
23 6 14 -22 40 -30 27z m18 -34 c-3 -4 -11 -8 -17 -7 -9 0 -9 2 0 5 7 3 9 13
6 22 -4 14 -3 14 5 2 6 -8 8 -18 6 -22z"/>
<path d="M11695 17810 c-6 -9 -4 -11 5 -5 10 6 12 4 6 -11 -4 -10 -4 -15 0
-12 4 4 16 2 28 -4 18 -9 19 -8 6 3 -8 8 -19 20 -26 28 -9 11 -12 12 -19 1z"/>
<path d="M12803 17754 c0 -33 2 -42 9 -30 5 9 6 21 2 27 -4 7 -1 10 6 7 8 -2
14 -14 15 -26 1 -11 -2 -19 -7 -16 -13 8 -9 -6 6 -22 17 -16 30 -19 21 -4 -4
6 1 7 11 3 16 -6 15 -7 -2 -20 -16 -12 -16 -13 -1 -13 22 0 34 29 18 40 -7 4
-13 11 -12 16 0 5 -12 23 -27 39 -15 17 -26 33 -24 38 1 4 -2 7 -7 7 -4 0 -8
-21 -8 -46z m58 -31 c13 -16 12 -17 -3 -4 -17 13 -22 21 -14 21 2 0 10 -8 17
-17z"/>
<path d="M30172 17747 c42 -104 127 -345 159 -449 l32 -107 166 -40 c282 -68
657 -126 951 -146 47 -4 94 -8 105 -10 127 -26 1396 -26 1635 0 14 1 77 6 140
10 63 4 118 9 122 12 4 2 -36 39 -90 82 -53 43 -143 119 -199 169 l-102 92
-163 0 c-337 0 -845 30 -1213 71 -593 66 -1105 181 -1468 328 l-96 39 21 -51z"/>
<path d="M12805 17679 c-4 -6 -5 -13 -2 -16 7 -7 27 6 27 18 0 12 -17 12 -25
-2z"/>
<path d="M12897 17649 c7 -7 15 -10 18 -7 3 3 -2 9 -12 12 -14 6 -15 5 -6 -5z"/>
<path d="M11810 17636 c0 -2 7 -7 16 -10 8 -3 12 -2 9 4 -6 10 -25 14 -25 6z"/>
<path d="M12914 17604 c0 -18 3 -21 13 -12 7 6 13 14 13 18 0 4 -6 10 -13 13
-8 3 -13 -3 -13 -19z"/>
<path d="M11902 17566 c7 -8 15 -12 17 -11 5 6 -10 25 -20 25 -5 0 -4 -6 3
-14z"/>
<path d="M44497 17564 c-314 -38 -821 -64 -1267 -64 l-305 -1 -105 -90 c-58
-50 -152 -126 -209 -168 l-104 -76 64 -6 c35 -4 100 -10 144 -14 44 -3 98 -8
120 -10 22 -2 99 -7 170 -11 72 -3 144 -8 160 -10 17 -2 242 -6 500 -10 406
-6 810 2 1015 20 24 3 25 5 22 62 -4 94 -12 171 -29 287 -18 124 3 113 -176
91z"/>
<path d="M11863 17546 c1 -11 9 -21 17 -23 10 -3 11 -2 4 4 -6 4 -14 15 -17
23 -5 11 -6 9 -4 -4z"/>
<path d="M11885 17550 c3 -5 8 -10 11 -10 2 0 4 5 4 10 0 6 -5 10 -11 10 -5 0
-7 -4 -4 -10z"/>
<path d="M11846 17520 c5 -8 9 -18 9 -22 0 -3 3 -9 7 -13 3 -4 5 0 4 9 -1 9
-8 22 -16 29 -10 10 -11 9 -4 -3z"/>
<path d="M12985 17469 c-6 -8 -4 -10 5 -4 10 6 12 4 6 -11 -6 -15 -5 -17 5 -6
9 9 10 15 2 23 -8 8 -13 7 -18 -2z"/>
<path d="M11886 17453 c-6 -14 -5 -15 5 -6 7 7 10 15 7 18 -3 3 -9 -2 -12 -12z"/>
<path d="M12966 17437 c3 -10 9 -15 12 -12 3 3 0 11 -7 18 -10 9 -11 8 -5 -6z"/>
<path d="M11903 17433 c4 -6 4 -13 0 -16 -5 -2 -3 -2 4 -1 6 2 14 -5 16 -14 4
-15 5 -15 6 -1 0 9 -7 23 -16 30 -9 8 -14 9 -10 2z"/>
<path d="M13010 17429 c0 -5 5 -7 10 -4 6 3 10 8 10 11 0 2 -4 4 -10 4 -5 0
-10 -5 -10 -11z"/>
<path d="M11955 17410 c-3 -6 1 -17 9 -26 19 -18 36 -10 36 17 0 20 -34 27
-45 9z m35 -10 c0 -5 -4 -10 -10 -10 -5 0 -10 5 -10 10 0 6 5 10 10 10 6 0 10
-4 10 -10z"/>
<path d="M11920 17372 c0 -7 4 -12 9 -12 5 0 11 -8 13 -17 2 -12 6 -14 10 -7
4 6 -1 19 -12 29 -12 10 -20 13 -20 7z"/>
<path d="M11977 17344 c7 -3 9 -13 6 -22 -4 -15 -3 -15 6 -2 15 22 14 30 -6
29 -10 0 -13 -3 -6 -5z"/>
<path d="M13060 17331 c0 -6 5 -13 11 -16 6 -4 8 -13 5 -21 -3 -7 -2 -15 2
-18 4 -3 8 4 9 14 1 11 -3 23 -9 26 -6 4 -5 10 3 15 11 7 10 9 -3 9 -10 0 -18
-4 -18 -9z"/>
<path d="M11957 17316 c-3 -8 0 -17 7 -19 10 -4 12 1 9 14 -6 23 -9 24 -16 5z"/>
<path d="M13043 17295 c0 -14 3 -28 7 -30 5 -3 7 6 5 20 -3 35 -12 42 -12 10z"/>
<path d="M11976 17252 c-3 -5 1 -9 9 -9 8 0 12 4 9 9 -3 4 -7 8 -9 8 -2 0 -6
-4 -9 -8z"/>
<path d="M13123 17225 c0 -8 4 -12 9 -9 5 3 6 10 3 15 -9 13 -12 11 -12 -6z"/>
<path d="M12008 17173 c6 -2 9 -10 6 -15 -4 -7 -2 -8 5 -4 13 9 5 26 -12 25
-9 0 -8 -2 1 -6z"/>
<path d="M13124 17161 c0 -11 4 -17 8 -15 4 3 8 12 8 20 0 8 -4 14 -8 14 -4 0
-8 -9 -8 -19z"/>
<path d="M12027 17143 c-10 -9 -9 -23 2 -23 5 0 11 7 15 15 5 15 -5 20 -17 8z"/>
<path d="M13137 17132 c-20 -21 -22 -32 -6 -32 5 0 8 4 5 9 -8 12 19 33 29 23
5 -4 5 -1 1 6 -9 16 -10 15 -29 -6z"/>
<path d="M13155 17110 c3 -5 10 -10 16 -10 5 0 9 5 9 10 0 6 -7 10 -16 10 -8
0 -12 -4 -9 -10z"/>
<path d="M12060 17039 c0 -5 5 -7 10 -4 6 3 10 8 10 11 0 2 -4 4 -10 4 -5 0
-10 -5 -10 -11z"/>
<path d="M13205 17021 c-3 -5 -1 -12 5 -16 6 -4 7 -11 4 -17 -4 -7 -2 -8 5 -4
8 6 9 12 2 20 -6 7 -8 16 -4 19 3 4 4 7 0 7 -3 0 -8 -4 -12 -9z"/>
<path d="M12147 16985 c-4 -8 -2 -17 3 -20 6 -4 10 3 10 14 0 25 -6 27 -13 6z"/>
<path d="M12081 16985 c0 -14 22 -40 37 -42 6 -2 12 2 12 7 0 6 -7 10 -15 10
-7 0 -19 8 -24 18 -6 9 -10 13 -10 7z"/>
<path d="M13217 16968 c-15 -12 -14 -13 10 -14 16 -1 22 1 15 3 -6 3 -10 9 -6
14 7 12 1 11 -19 -3z"/>
<path d="M12125 16920 c-16 -18 -16 -18 4 -13 25 6 35 19 22 27 -4 3 -16 -3
-26 -14z"/>
<path d="M13234 16929 c-3 -6 8 -25 27 -43 21 -19 26 -22 12 -6 -11 14 -19 30
-16 37 6 15 -14 26 -23 12z"/>
<path d="M12185 16754 c-13 -21 -14 -29 -4 -38 9 -8 10 -8 5 1 -4 7 1 24 10
38 9 14 14 25 11 25 -2 0 -12 -12 -22 -26z"/>
<path d="M12216 16764 c-5 -14 -4 -15 9 -4 17 14 19 20 6 20 -5 0 -12 -7 -15
-16z"/>
<path d="M13317 16753 c5 -12 3 -14 -8 -9 -9 5 -8 3 2 -6 9 -7 14 -20 11 -28
-3 -11 -1 -12 7 -4 8 8 9 18 2 37 -6 15 -13 27 -15 27 -3 0 -2 -7 1 -17z"/>
<path d="M13290 16705 c0 -8 3 -15 8 -15 4 0 8 -11 8 -25 1 -15 -3 -25 -12
-25 -8 0 -14 -4 -14 -10 0 -12 22 -9 33 5 4 6 10 5 16 -4 6 -9 11 -10 15 -2 4
6 2 11 -3 11 -6 0 -11 5 -11 10 0 7 7 7 23 0 l22 -11 -21 18 c-12 10 -31 28
-43 41 -15 16 -21 18 -21 7z m35 -35 c3 -5 1 -10 -4 -10 -6 0 -11 5 -11 10 0
6 2 10 4 10 3 0 8 -4 11 -10z"/>
<path d="M12196 16684 c-5 -14 -4 -15 9 -4 17 14 19 20 6 20 -5 0 -12 -7 -15
-16z"/>
<path d="M12225 16650 c3 -5 1 -18 -4 -29 -8 -14 -7 -20 2 -24 8 -3 13 7 14
29 1 19 -3 34 -8 34 -6 0 -7 -4 -4 -10z"/>
<path d="M12260 16511 c0 -6 4 -12 8 -15 5 -3 9 1 9 9 0 8 -4 15 -9 15 -4 0
-8 -4 -8 -9z"/>
<path d="M13390 16502 c0 -4 6 -16 13 -26 10 -14 14 -15 14 -4 0 7 -6 19 -14
26 -7 7 -13 9 -13 4z"/>
<path d="M13381 16450 c-18 -11 -22 -67 -5 -67 9 0 10 5 3 18 -13 25 -11 33 5
20 12 -10 14 -8 10 11 -5 20 -4 21 6 5 6 -9 8 -26 5 -37 -4 -12 -2 -20 5 -20
6 0 8 5 5 10 -9 14 8 12 24 -2 10 -10 -32 58 -42 69 -2 1 -9 -2 -16 -7z"/>
<path d="M12382 16366 c7 -8 15 -12 17 -11 5 6 -10 25 -20 25 -5 0 -4 -6 3
-14z"/>
<path d="M12343 16346 c1 -11 9 -21 17 -23 10 -3 11 -2 4 4 -6 4 -14 15 -17
23 -5 11 -6 9 -4 -4z"/>
<path d="M12365 16350 c3 -5 8 -10 11 -10 2 0 4 5 4 10 0 6 -5 10 -11 10 -5 0
-7 -4 -4 -10z"/>
<path d="M13445 16331 c-3 -5 -2 -12 3 -15 5 -3 9 1 9 9 0 17 -3 19 -12 6z"/>
<path d="M12329 16317 c6 -8 7 -18 3 -22 -4 -5 -1 -5 6 -1 10 6 10 11 1 22 -6
8 -14 14 -16 14 -3 0 0 -6 6 -13z"/>
<path d="M13453 16285 c0 -8 4 -12 9 -9 4 3 8 9 8 15 0 5 -4 9 -8 9 -5 0 -9
-7 -9 -15z"/>
<path d="M12350 16276 c0 -2 7 -9 15 -16 13 -11 14 -10 9 4 -5 14 -24 23 -24
12z"/>
<path d="M13465 16249 c-4 -6 -5 -12 -2 -15 2 -3 7 2 10 11 7 17 1 20 -8 4z"/>
<path d="M12356 16232 c-3 -5 1 -9 9 -9 8 0 12 4 9 9 -3 4 -7 8 -9 8 -2 0 -6
-4 -9 -8z"/>
<path d="M13472 16204 c-7 -8 -8 -14 -3 -14 10 0 25 19 20 25 -2 1 -10 -3 -17
-11z"/>
<path d="M13450 16165 c0 -8 4 -15 10 -15 5 0 7 7 4 15 -4 8 -8 15 -10 15 -2
0 -4 -7 -4 -15z"/>
<path d="M13480 16155 c0 -8 4 -15 10 -15 5 0 7 7 4 15 -4 8 -8 15 -10 15 -2
0 -4 -7 -4 -15z"/>
<path d="M12442 15945 c0 -16 2 -22 5 -12 2 9 2 23 0 30 -3 6 -5 -1 -5 -18z"/>
<path d="M12465 15889 c-4 -6 -5 -12 -2 -15 2 -3 7 2 10 11 7 17 1 20 -8 4z"/>
<path d="M13533 15872 c-1 -22 0 -24 9 -8 6 10 6 22 2 26 -5 5 -10 -3 -11 -18z"/>
<path d="M12455 15849 c-4 -6 -5 -12 -2 -15 2 -3 7 2 10 11 7 17 1 20 -8 4z"/>
<path d="M13530 15830 c0 -5 0 -12 0 -15 0 -12 14 -4 16 10 1 8 -2 15 -7 15
-5 0 -9 -4 -9 -10z"/>
<path d="M12460 15769 c0 -5 -4 -7 -10 -4 -14 9 -12 -1 3 -13 10 -8 13 -6 14
9 1 10 0 19 -3 19 -2 0 -4 -5 -4 -11z"/>
<path d="M12454 15719 c-3 -6 1 -18 11 -27 16 -16 17 -16 7 4 -6 12 -8 24 -5
28 3 3 4 6 0 6 -3 0 -9 -5 -13 -11z"/>
<path d="M13600 15653 c0 -13 5 -23 10 -23 13 0 13 11 0 30 -8 12 -10 11 -10
-7z"/>
<path d="M12465 15649 c-4 -6 -5 -12 -2 -15 2 -3 7 2 10 11 7 17 1 20 -8 4z"/>
<path d="M12542 15566 c7 -8 15 -12 17 -11 5 6 -10 25 -20 25 -5 0 -4 -6 3
-14z"/>
<path d="M12503 15546 c1 -11 9 -21 17 -23 10 -3 11 -2 4 4 -6 4 -14 15 -17
23 -5 11 -6 9 -4 -4z"/>
<path d="M12525 15550 c3 -5 8 -10 11 -10 2 0 4 5 4 10 0 6 -5 10 -11 10 -5 0
-7 -4 -4 -10z"/>
<path d="M12487 15520 c5 -8 9 -25 8 -38 -1 -13 1 -25 5 -27 14 -8 5 54 -10
67 -12 11 -12 11 -3 -2z"/>
<path d="M13610 15510 c-9 -6 -10 -10 -3 -10 6 0 15 5 18 10 8 12 4 12 -15 0z"/>
<path d="M12526 15489 c3 -5 10 -6 16 -3 8 5 9 1 5 -10 -4 -11 -3 -15 4 -11
14 10 6 28 -14 31 -9 1 -15 -2 -11 -7z"/>
<path d="M13613 15484 c4 -4 2 -13 -5 -21 -9 -11 -8 -13 3 -11 10 2 13 -6 11
-32 -2 -32 -2 -33 12 -15 9 13 11 21 4 24 -6 2 -5 7 3 12 10 6 10 9 2 9 -7 0
-10 6 -7 14 3 7 -3 16 -13 20 -9 4 -14 4 -10 0z"/>
<path d="M12539 15438 c-1 -5 -7 -33 -10 -54 -2 -11 1 -21 6 -21 6 -1 9 4 7 9
-1 6 2 16 8 23 8 9 8 15 0 20 -6 3 -8 11 -5 16 4 5 4 9 1 9 -3 0 -6 -1 -7 -2z"/>
<path d="M13645 15400 c-3 -5 -1 -10 4 -10 6 0 11 5 11 10 0 6 -2 10 -4 10 -3
0 -8 -4 -11 -10z"/>
<path d="M13647 15357 c-3 -8 1 -14 8 -14 7 0 11 6 8 14 -3 7 -6 13 -8 13 -2
0 -5 -6 -8 -13z"/>
<path d="M13600 15356 c0 -2 7 -6 15 -10 8 -3 15 -1 15 4 0 6 -7 10 -15 10 -8
0 -15 -2 -15 -4z"/>
<path d="M12540 15331 c0 -6 4 -13 10 -16 6 -3 7 1 4 9 -7 18 -14 21 -14 7z"/>
<path d="M13684 15120 c0 -21 3 -37 7 -34 8 4 6 60 -2 68 -3 3 -5 -12 -5 -34z"/>
<path d="M12584 15073 c-13 -22 -14 -25 -2 -15 13 10 17 10 22 -5 6 -15 8 -15
23 0 14 14 15 19 4 29 -7 7 -12 9 -11 3 2 -5 2 -17 1 -25 -1 -12 -4 -12 -12 3
-5 9 -7 22 -4 27 15 24 -4 7 -21 -17z"/>
<path d="M13685 15041 c1 -16 5 -34 9 -40 4 -6 1 -11 -6 -11 -8 0 -9 -3 -3 -8
6 -4 11 -14 13 -22 2 -8 7 -21 12 -30 7 -11 8 -8 6 10 -1 14 -5 30 -8 35 -3 6
-4 25 -3 43 1 18 -4 37 -11 42 -9 8 -11 3 -9 -19z"/>
<path d="M12603 15005 c17 -10 26 -22 23 -30 -3 -8 -2 -17 3 -19 4 -3 7 8 7
23 0 15 -4 28 -10 28 -6 0 -20 4 -31 7 -11 4 -7 0 8 -9z"/>
<path d="M13683 14852 c-1 -22 0 -23 6 -8 7 18 8 18 14 2 4 -9 11 -14 17 -11
13 8 5 22 -18 34 -15 8 -18 5 -19 -17z"/>
<path d="M12673 14843 c4 -3 3 -11 -3 -17 -6 -8 -3 -12 10 -13 11 -1 22 2 25
8 3 5 -1 6 -10 3 -11 -5 -14 -2 -9 10 4 10 1 16 -7 16 -7 0 -9 -3 -6 -7z"/>
<path d="M13706 14782 c2 -19 6 -37 10 -41 3 -3 5 3 4 14 -1 11 -1 22 0 25 8
21 6 37 -5 37 -8 0 -11 -12 -9 -35z"/>
<path d="M13730 14750 c0 -5 5 -10 11 -10 5 0 7 5 4 10 -3 6 -8 10 -11 10 -2
0 -4 -4 -4 -10z"/>
<path d="M13730 14721 c0 -6 4 -12 8 -15 5 -3 9 1 9 9 0 8 -4 15 -9 15 -4 0
-8 -4 -8 -9z"/>
<path d="M13716 14688 c5 -8 1 -9 -12 -4 -14 5 -16 4 -7 -5 6 -6 16 -8 22 -5
14 9 14 26 0 26 -5 0 -7 -5 -3 -12z"/>
<path d="M13687 14645 c-7 -18 6 -27 27 -19 13 5 13 8 1 20 -17 18 -21 18 -28
-1z"/>
<path d="M13730 14656 c0 -2 8 -10 18 -17 15 -13 16 -12 3 4 -13 16 -21 21
-21 13z"/>
<path d="M12813 14598 c0 -13 1 -17 4 -10 3 6 10 9 16 5 7 -4 6 1 -2 10 -17
21 -17 21 -18 -5z"/>
<path d="M12815 14560 c3 -5 8 -10 11 -10 2 0 4 5 4 10 0 6 -5 10 -11 10 -5 0
-7 -4 -4 -10z"/>
<path d="M12863 14533 c1 -13 7 -23 15 -23 7 0 10 -5 6 -12 -4 -7 -3 -8 5 -4
8 6 9 12 2 20 -6 7 -7 17 -3 21 4 5 2 5 -5 2 -6 -4 -13 -1 -16 5 -3 7 -4 3 -4
-9z"/>
<path d="M12920 14522 c0 -5 7 -15 15 -22 8 -7 15 -9 15 -6 0 4 -7 14 -15 22
-8 9 -15 11 -15 6z"/>
<path d="M12916 14472 c-3 -5 1 -9 9 -9 8 0 12 4 9 9 -3 4 -7 8 -9 8 -2 0 -6
-4 -9 -8z"/>
<path d="M12996 14421 c-3 -4 4 -7 14 -6 27 2 33 10 10 12 -11 1 -22 -2 -24
-6z"/>
<path d="M13065 14340 c4 -6 11 -8 16 -5 14 9 11 15 -7 15 -8 0 -12 -5 -9 -10z"/>
<path d="M13145 14290 c3 -5 8 -10 11 -10 2 0 4 5 4 10 0 6 -5 10 -11 10 -5 0
-7 -4 -4 -10z"/>
<path d="M13219 14277 c5 -5 19 -7 32 -5 20 3 19 5 -9 9 -20 3 -29 2 -23 -4z"/>
<path d="M13246 14247 c3 -10 9 -15 12 -12 3 3 0 11 -7 18 -10 9 -11 8 -5 -6z"/>
<path d="M13396 14207 c3 -10 9 -15 12 -12 3 3 0 11 -7 18 -10 9 -11 8 -5 -6z"/>
<path d="M13430 14210 c19 -13 30 -13 30 0 0 6 -10 10 -22 10 -19 0 -20 -2 -8
-10z"/>
<path d="M13490 14209 c0 -5 5 -7 10 -4 6 3 10 8 10 11 0 2 -4 4 -10 4 -5 0
-10 -5 -10 -11z"/>
<path d="M13370 14190 c-9 -6 -10 -10 -3 -10 6 0 15 5 18 10 8 12 4 12 -15 0z"/>
<path d="M13450 14179 c12 -8 10 -10 -10 -5 -24 5 -24 4 -6 -9 15 -12 22 -12
27 -3 9 15 2 28 -14 28 -7 0 -6 -4 3 -11z"/>
<path d="M13480 14182 c0 -5 7 -9 15 -9 8 0 12 4 9 9 -3 4 -9 8 -15 8 -5 0 -9
-4 -9 -8z"/>
<path d="M13480 14146 c7 -7 13 -7 20 0 6 6 3 10 -10 10 -13 0 -16 -4 -10 -10z"/>
<path d="M13760 14140 c0 -5 5 -10 11 -10 5 0 7 5 4 10 -3 6 -8 10 -11 10 -2
0 -4 -4 -4 -10z"/>
<path d="M13583 14125 c0 -8 4 -12 9 -9 5 3 6 10 3 15 -9 13 -12 11 -12 -6z"/>
<path d="M13650 14122 c-11 -12 -10 -13 9 -7 16 5 26 2 35 -11 12 -15 13 -15
11 6 -2 27 -34 34 -55 12z"/>
<path d="M13727 14102 c4 -10 8 -12 11 -4 3 9 9 9 25 1 17 -9 19 -9 11 0 -6 6
-20 13 -32 16 -16 3 -19 0 -15 -13z"/>
</g>
</svg>
